<?xml version="1.0" encoding="UTF-8"?>
<svg width="12px" height="12px" viewBox="0 0 12 12" version="1.1" xmlns="http://www.w3.org/2000/svg" xmlns:xlink="http://www.w3.org/1999/xlink">
    <title>Icons/Actions/ic_info cutout 12 x 12</title>
    <g id="Symbols" stroke="none" stroke-width="1" fill="none" fill-rule="evenodd">
        <g id="Button-with-icon" transform="translate(-6, -6)" fill="#5E6770">
            <g id="Icons/Actions/ic_info-cutout-12-x-12" transform="translate(6, 6)">
                <path d="M6,0 C9.3137085,0 12,2.6862915 12,6 C12,9.3137085 9.3137085,12 6,12 C2.6862915,12 0,9.3137085 0,6 C0,2.6862915 2.6862915,0 6,0 Z M7.5,4.5 L4.55504118,4.90391635 L4.5311262,5.05026286 C4.52075417,5.08426055 4.51445812,5.11907618 4.51233586,5.15416888 C4.63661826,5.15259382 4.76091289,5.15650156 4.88472624,5.1658766 C5.00914423,5.17291698 5.12341843,5.22711897 5.19642271,5.31371897 C5.269427,5.40031896 5.2935574,5.51029692 5.26224127,5.61369691 C5.25458857,5.67475385 5.24260897,5.73535559 5.2263688,5.79516657 C5.02479969,6.4010411 4.8249388,7.02155029 4.62678612,7.61864403 C4.42863343,8.21573777 4.21169041,8.80844112 4.04086914,9.40992525 C3.84613288,10.0948269 4.36713777,10.570453 5.18195527,10.4914259 C5.53048647,10.4558273 5.86055151,10.3377513 6.13513799,10.1504386 C6.6578511,9.81091468 7.00974293,9.35724051 7.35138549,8.86844318 L7.11394391,8.74551212 C6.94483085,8.94161644 6.79450812,9.13040343 6.62368685,9.30455577 C6.5057235,9.42370568 6.37152718,9.53032229 6.22396506,9.62212769 C6.1492882,9.65647153 6.05949212,9.65647153 5.98481527,9.62212769 C5.9172635,9.57036464 5.87872898,9.4963507 5.87890608,9.41870604 C5.89053734,9.31160299 5.91868312,9.20629258 5.9626085,9.10552452 C6.39307812,7.81865092 6.82183953,6.53616771 7.24889272,5.2580749 L7.29501447,5.11172839 L7.5,4.5 Z M7,1.5 C6.44771525,1.5 6,1.94771525 6,2.5 C6,3.05228475 6.44771525,3.5 7,3.5 C7.55228475,3.5 8,3.05228475 8,2.5 C8,1.94771525 7.55228475,1.5 7,1.5 Z" id="Combined-Shape"></path>
            </g>
        </g>
    </g>
</svg>